<svg xmlns="http://www.w3.org/2000/svg" enable-background="new 0 0 24 24" viewBox="0 0 24 24" id="photo">
  <path d="M12,11c-1.1,0-2,0.9-2,2s0.9,2,2,2s2-0.9,2-2S13.1,11,12,11z M19,7h-1.3l-0.3-0.9c-0.1-0.3-0.2-0.5-0.4-0.8c0,0,0,0,0-0.1
	c0,0-0.1-0.1-0.1-0.1C16.3,4.4,15.5,4,14.6,4H9.4C8.9,4,8.3,4.2,7.9,4.5c-0.1,0-0.1,0.1-0.2,0.1c0,0,0,0,0,0C7.2,5,6.8,5.5,6.6,6.1
	L6.3,7H5c-1.7,0-3,1.3-3,3v8c0,1.7,1.3,3,3,3h14c1.7,0,3-1.3,3-3v-8C22,8.3,20.7,7,19,7z M12,17c-2.2,0-4-1.8-4-4s1.8-4,4-4
	s4,1.8,4,4C16,15.2,14.2,17,12,17z"></path>
</svg>
