<svg xmlns="http://www.w3.org/2000/svg" viewBox="0 0 32 32" id="send">
  <g>
    <path d="M19.8,30.88a2.29,2.29,0,0,1-2-1.2L12.3,19.82a.33.33,0,0,0-.12-.13L2.32,14.22A2.32,2.32,0,0,1,2.71,10L27.26,1.8A2.32,2.32,0,0,1,30.2,4.74L22,29.29a2.3,2.3,0,0,1-2,1.58ZM27.89,3.69,3.35,11.88a.32.32,0,0,0-.06.59l9.86,5.48a2.31,2.31,0,0,1,.9.9l5.48,9.86a.31.31,0,0,0,.31.17.31.31,0,0,0,.28-.22L28.31,4.1a.31.31,0,0,0-.08-.33.32.32,0,0,0-.33-.08Z"></path>
    <rect width="22.59" height="2" x="9.65" y="10.05" transform="rotate(-45 20.948 11.053)"></rect>
  </g>
</svg>
